<svg id="Layer_1" data-name="Layer 1" xmlns="http://www.w3.org/2000/svg" viewBox="0 0 541.94 57.8"><title>flo</title><path d="M60.84,82.5H42.93V93.2H59.52V104H42.93v23H30.16V71.72H60.84Z" transform="translate(-30.16 -70.47)"/><path d="M83,71.72v44.53h17.16V127H70.21V71.72Z" transform="translate(-30.16 -70.47)"/><path d="M154.63,78.52a29.42,29.42,0,0,1,0,41.63c-5.14,5-12.1,8.12-21.39,8.12-10.37,0-17.41-4.14-21.56-8.12a28.25,28.25,0,0,1-8.63-20.57,30.88,30.88,0,0,1,8.55-21c3.73-3.73,10.61-8.13,21.64-8.13C141.86,70.47,149.08,73.13,154.63,78.52ZM121.05,87c-2.41,2.32-4.89,6.38-4.89,12.52a16.5,16.5,0,0,0,5,12.44,16.28,16.28,0,0,0,11.86,4.56,16.75,16.75,0,0,0,12.28-4.73c2.15-2.07,4.81-6,4.81-12.35A17.44,17.44,0,0,0,145.35,87a17.72,17.72,0,0,0-12.19-4.73A17,17,0,0,0,121.05,87Z" transform="translate(-30.16 -70.47)"/><path d="M177.94,71.72l11.77,36.65,11.78-36.65h8.79l11.78,36.65,11.77-36.65H247.1L228.28,127H217.49l-11.6-33.58L194.28,127H183.5L164.67,71.72Z" transform="translate(-30.16 -70.47)"/><path d="M253.49,127V71.72H264.6l30,35.66V71.72h12.77V127H296.28l-30-35.82V127Z" transform="translate(-30.16 -70.47)"/><path d="M368.51,78.52a29.44,29.44,0,0,1,0,41.63c-5.14,5-12.11,8.12-21.4,8.12-10.36,0-17.41-4.14-21.56-8.12a28.24,28.24,0,0,1-8.62-20.57,30.87,30.87,0,0,1,8.54-21c3.73-3.73,10.61-8.13,21.64-8.13C355.74,70.47,363,73.13,368.51,78.52ZM334.92,87A17,17,0,0,0,330,99.5a16.51,16.51,0,0,0,5.06,12.44A16.25,16.25,0,0,0,347,116.5a16.71,16.71,0,0,0,12.27-4.73c2.15-2.07,4.81-6,4.81-12.35A17.4,17.4,0,0,0,359.22,87,17.72,17.72,0,0,0,347,82.25,17,17,0,0,0,334.92,87Z" transform="translate(-30.16 -70.47)"/><path d="M384.1,127,393,71.72h10.62l13.76,33.09,13.77-33.09h10.61L450.61,127H437.84l-4.4-33-13.85,33h-4.48L401.27,94l-4.4,33Z" transform="translate(-30.16 -70.47)"/><path d="M473.16,71.72V127H460.39V71.72Z" transform="translate(-30.16 -70.47)"/><path d="M525.49,125.29a25.64,25.64,0,0,1-12.19,3c-10.2,0-17.08-3.48-21.73-8a29.63,29.63,0,0,1,0-41.79,29.38,29.38,0,0,1,20.65-8,33,33,0,0,1,13.27,3.07V88.3a17.54,17.54,0,0,0-12.93-5.88,15.5,15.5,0,0,0-11.28,4.31,17.7,17.7,0,0,0-5.23,12.77,16.17,16.17,0,0,0,16.75,16.83c3.32,0,7.8-.91,12.69-5.72Z" transform="translate(-30.16 -70.47)"/><path d="M564.22,85.24c-4.15-3.74-7.71-4-9.29-4-1.74,0-3.9.24-5.39,1.9a5,5,0,0,0-1.41,3.49,3.86,3.86,0,0,0,1.25,3.06c1.32,1.25,3.23,1.75,7,3.15l4.15,1.58A22.16,22.16,0,0,1,568,98.67,13.78,13.78,0,0,1,572.1,109c0,5.72-2,10.7-4.9,13.69-4.89,5.14-12,5.63-15.67,5.63A23.42,23.42,0,0,1,540.59,126a35.21,35.21,0,0,1-8.13-6l6.63-9.12a34.47,34.47,0,0,0,5.14,4.23,12.93,12.93,0,0,0,7,2,8.84,8.84,0,0,0,5.8-1.91,5.72,5.72,0,0,0,2-4.48,4.89,4.89,0,0,0-1.9-4c-1.5-1.24-4.9-2.49-6.47-3.07L546.06,102c-2.57-.92-5.56-2.08-7.71-4.4-2.91-3.07-3.32-7-3.32-9.62a17,17,0,0,1,4.81-12.44c3.9-4,8.54-5.06,13.68-5.06A26.74,26.74,0,0,1,569.94,76Z" transform="translate(-30.16 -70.47)"/></svg>